<svg xmlns:dc="http://purl.org/dc/elements/1.1/" xmlns:cc="http://creativecommons.org/ns#" xmlns:rdf="http://www.w3.org/1999/02/22-rdf-syntax-ns#" xmlns:svg="http://www.w3.org/2000/svg" xmlns="http://www.w3.org/2000/svg" xmlns:sodipodi="http://sodipodi.sourceforge.net/DTD/sodipodi-0.dtd" xmlns:inkscape="http://www.inkscape.org/namespaces/inkscape" version="1.1" x="0px" y="0px" viewBox="0 0 100 115"><g transform="translate(0,-952.36218)"><path style="text-indent:0;text-transform:none;direction:ltr;block-progression:tb;baseline-shift:baseline;color:currentColor;enable-background:accumulate;" d="m 75.585948,958.3637 a 2.0001999,2.0001999 0 0 0 -0.71875,0.25 l -46.03125,26.59375 0,-6.6875 a 2.0001999,2.0001999 0 0 0 -2,-2 l -13.6875,0 a 2.0001999,2.0001999 0 0 0 -2,2 l 0,16.90625 -4.1562497,2.375 a 2.0020348,2.0020348 0 0 0 2,3.4688 l 2.1562497,-1.25 0,44.3437 a 2.0001999,2.0001999 0 0 0 2,2 l 73.5625,0 a 2.0001999,2.0001999 0 0 0 2,-2 l 0,-57.84375 1.5625,2.75 a 2.0020131,2.0020131 0 1 0 3.46875,-2 l -16.125,-27.90625 a 2.0001999,2.0001999 0 0 0 -1.84375,-1 2.0001999,2.0001999 0 0 0 -0.1875,0 z m -60.4375,22.15625 9.6875,0 0,7 -9.6875,5.59375 0,-12.59375 z m 52.125,8.0625 a 2.0001999,2.0001999 0 0 1 0.1875,0 l 8.34375,0 a 2.0001999,2.0001999 0 0 1 2,2 l 0,8.34375 a 2.0001999,2.0001999 0 0 1 -2,2 l -8.34375,0 a 2.0001999,2.0001999 0 0 1 -2,-2 l 0,-8.34375 a 2.0001999,2.0001999 0 0 1 1.8125,-2 z m -0.71875,33.71875 8.375,0 0,20.0625 -8.40625,0 0.0312,-20.0625 z m -43.9375,1.5312 20.09375,0 0,3.5 -20.09375,0.031 0,-3.5312 z m 20.09375,7.5 0,3.5313 -20.09375,0 0,-3.5 20.09375,-0.031 z m -20.09375,7.5313 20.09375,0 0,3.5 -20.09375,0 0,-3.5 z" fill="currentColor" fill-opacity="1" fill-rule="evenodd" stroke="none" marker="none" visibility="visible" display="inline" overflow="visible"/><path style="text-indent:0;text-transform:none;direction:ltr;block-progression:tb;baseline-shift:baseline;color:currentColor;enable-background:accumulate;" d="m 69.466978,992.58343 4.337231,0 0,4.33279 -4.337231,0 0,-4.33279 z" fill="currentColor" fill-opacity="1" fill-rule="evenodd" stroke="none" marker="none" visibility="visible" display="inline" overflow="visible"/></g></svg>