<svg xmlns="http://www.w3.org/2000/svg" xmlns:xlink="http://www.w3.org/1999/xlink" version="1.1" x="0px" y="0px" viewBox="0 0 100 115" enable-background="new 0 0 100 100" style="fill: #ffffff;" transform="rotate(180)" xml:space="preserve"><g><path d="M49.05,23.9c-12.51,0.48-22.74,10.65-23.31,23.14c-0.24,5.18,1.13,10.19,3.97,14.48c1.03,1.57,2.05,4.7,2.88,8.83   c0.29,1.49,1.07,2.78,2.14,3.74c-0.89,0.84-1.45,2.03-1.45,3.34c0,1.2,0.47,2.29,1.22,3.11c-0.73,0.82-1.19,1.89-1.19,3.07   c0,2.53,2.06,4.59,4.59,4.6c0.13,3.77,3.22,6.79,7.01,6.79h10.18c3.79,0,6.88-3.02,7.01-6.79c2.53-0.01,4.58-2.07,4.58-4.6   c0-1.2-0.46-2.28-1.21-3.1c0.73-0.82,1.18-1.9,1.18-3.08c0-1.28-0.53-2.44-1.38-3.28c1.08-0.95,1.88-2.23,2.19-3.71   c0.92-4.31,2-7.6,3.05-9.25c2.47-3.89,3.78-8.39,3.78-13.01C74.29,34.47,62.88,23.38,49.05,23.9z M67.96,59.57   c-1.28,2-2.44,5.45-3.46,10.24c-0.37,1.75-1.93,3.02-3.72,3.02H39.29c-1.81,0-3.38-1.29-3.74-3.08c-0.92-4.63-2.04-7.95-3.32-9.89   c-2.48-3.76-3.68-8.15-3.47-12.68c0.5-10.94,9.46-19.83,20.4-20.25c0.28-0.01,0.56-0.02,0.84-0.02c11.72,0,21.26,9.54,21.26,21.27   C71.26,52.23,70.12,56.16,67.96,59.57z"/><g><path d="M65.791,42.197c-0.31,0-0.605-0.183-0.733-0.486c-1.919-4.539-5.701-8.023-10.375-9.561    c-0.417-0.137-0.645-0.587-0.507-1.005c0.137-0.417,0.586-0.646,1.005-0.507c5.111,1.681,9.245,5.491,11.344,10.453    c0.171,0.405-0.018,0.872-0.423,1.043C65.999,42.177,65.894,42.197,65.791,42.197z"/></g><polygon points="59.477,48.628 50,51.787 40.523,48.628 39.567,50.014 43.552,57.977 45.243,71.258 46.808,71.258 45.083,57.511    41.661,50.671 50,53.451 58.169,50.728 54.917,57.227 53.192,70.973 54.757,70.973 56.448,57.693 60.433,49.729  "/><path d="M81.466,38.664c0.168,0,0.334-0.026,0.488-0.078l6.621-2.15c0.407-0.133,0.739-0.416,0.934-0.796   c0.196-0.382,0.23-0.817,0.096-1.227c-0.219-0.659-0.832-1.102-1.524-1.102c-0.152,0-0.303,0.021-0.495,0.075l-6.617,2.159   c-0.414,0.132-0.746,0.414-0.931,0.785c-0.199,0.382-0.235,0.82-0.103,1.234C80.143,38.211,80.772,38.664,81.466,38.664z"/><path d="M88.435,58.084l-6.643-2.156c-0.112-0.031-0.287-0.068-0.472-0.068c-0.695,0-1.323,0.457-1.526,1.105   c-0.272,0.835,0.184,1.741,1.021,2.021l6.626,2.149c0.157,0.052,0.32,0.078,0.486,0.078c0.695,0,1.327-0.456,1.537-1.105   c0.135-0.405,0.099-0.841-0.098-1.222C89.177,58.506,88.837,58.214,88.435,58.084z"/><path d="M74.626,13.547c-0.683-0.503-1.766-0.328-2.24,0.358l-4.102,5.633c-0.515,0.718-0.351,1.722,0.357,2.232   c0.265,0.197,0.587,0.301,0.932,0.301c0.527,0,1.018-0.243,1.312-0.649l4.089-5.638C75.495,15.075,75.339,14.07,74.626,13.547z"/><path d="M50.23,5.47c-0.883,0-1.601,0.722-1.601,1.61v6.96c0,0.882,0.718,1.6,1.601,1.6c0.882,0,1.6-0.718,1.6-1.6V7.08   C51.83,6.192,51.112,5.47,50.23,5.47z"/><path d="M27.99,13.62c-0.516-0.686-1.627-0.816-2.229-0.348c-0.352,0.249-0.587,0.635-0.643,1.042   c-0.073,0.418,0.023,0.843,0.277,1.2l4.1,5.639c0.292,0.404,0.781,0.645,1.31,0.645c0.343,0,0.663-0.101,0.932-0.295   c0.345-0.253,0.57-0.625,0.637-1.047c0.066-0.424-0.037-0.848-0.289-1.189L27.99,13.62z"/><path d="M19.186,35.104l-6.655-2.167c-0.924-0.249-1.729,0.239-1.997,1.04c-0.133,0.417-0.096,0.854,0.096,1.209   c0.187,0.388,0.52,0.675,0.937,0.81l6.616,2.149c0.157,0.052,0.321,0.079,0.487,0.079c0.692,0,1.324-0.451,1.537-1.098   c0.134-0.411,0.099-0.849-0.1-1.235C19.911,35.509,19.582,35.23,19.186,35.104z"/><path d="M18.54,55.42c-0.152,0-0.303,0.021-0.494,0.074l-6.618,2.15c-0.403,0.129-0.744,0.422-0.931,0.795   c-0.201,0.386-0.237,0.822-0.104,1.221c0.206,0.656,0.837,1.114,1.532,1.114c0.168,0,0.334-0.027,0.488-0.079l6.621-2.15   c0.407-0.133,0.739-0.416,0.934-0.796c0.196-0.382,0.23-0.817,0.097-1.223C19.851,55.864,19.237,55.42,18.54,55.42z"/></g></svg>