<svg xmlns="http://www.w3.org/2000/svg" xmlns:xlink="http://www.w3.org/1999/xlink" version="1.1" x="0px" y="0px" viewBox="0 0 100 115" enable-background="new 0 0 100 100" style="fill: #ffffff;" transform="rotate(180)" xml:space="preserve"><g><path d="M40.096,89.789h19.808C59.766,92.69,57.87,95,55.551,95H44.449C42.13,95,40.234,92.69,40.096,89.789z"/><path d="M63.18,83.031c0.948,0,1.724,1.047,1.724,2.327s-0.776,2.315-1.724,2.315h-0.483H37.303H36.82   c-0.948,0-1.724-1.035-1.724-2.315s0.776-2.327,1.724-2.327h26.325H63.18z"/><path d="M63.184,76.213c0.948,0,1.715,1.047,1.715,2.327c0,1.28-0.767,2.315-1.715,2.315H36.859h-0.034   c-0.948,0-1.724-1.035-1.724-2.315c0-1.28,0.776-2.327,1.724-2.327h1.526h23.446H63.184z"/><!--<path d="M49.999,24.024c-0.302,0-0.603,0.009-0.914,0.017c-11.939,0.457-21.713,10.163-22.257,22.093   c-0.224,4.948,1.086,9.732,3.784,13.835c1.396,2.112,2.612,5.741,3.629,10.792c0.388,1.948,2.103,3.353,4.069,3.353h23.446   c1.948,0,3.655-1.379,4.06-3.293c1.112-5.224,2.379-8.982,3.776-11.171c2.353-3.715,3.603-8.008,3.603-12.43   C73.196,34.428,62.791,24.024,49.999,24.024z M55.742,60.8L54.39,71.42h-1.565l1.389-11.071c0.222-1.768,0.743-3.485,1.54-5.079   l2.046-4.09l-6.207,2.069c-1.272,0.424-2.646,0.424-3.918,0l-6.378-2.126l2.217,4.43c0.797,1.593,1.318,3.311,1.54,5.079   l1.389,11.071h-1.565l-1.352-10.62c-0.224-1.758-0.743-3.465-1.536-5.05l-2.454-4.904c-0.204-0.409-0.17-0.896,0.089-1.272l0,0   c0.317-0.459,0.899-0.654,1.428-0.478l6.622,2.207c1.272,0.424,2.646,0.424,3.918,0l6.824-2.275c0.418-0.139,0.88-0.013,1.169,0.32   l0,0c0.289,0.333,0.349,0.808,0.151,1.202l-2.459,4.915C56.485,57.335,55.966,59.042,55.742,60.8z M67.74,40.964   c-0.11,0.046-0.223,0.069-0.335,0.069c-0.336,0-0.655-0.198-0.794-0.527c-2.079-4.916-6.175-8.69-11.237-10.355   c-0.452-0.149-0.698-0.636-0.549-1.088c0.148-0.452,0.635-0.7,1.088-0.549c5.535,1.821,10.013,5.947,12.286,11.321   C68.383,40.273,68.178,40.779,67.74,40.964z"/>--></g><script xmlns="" id="bw-fido2-page-script"/></svg>