<svg xmlns="http://www.w3.org/2000/svg" width="234.9" height="191" viewBox="0 0 234.9 191">
  <title>twitter</title>
  <path d="M73.7,191c88.7,0,137.2-73.5,137.2-137.2,0-2.1,0-4.2-.1-6.2a98.789,98.789,0,0,0,24.1-25,97.872,97.872,0,0,1-27.7,7.6A48.193,48.193,0,0,0,228.4,3.5a97.648,97.648,0,0,1-30.6,11.7,48.248,48.248,0,0,0-83.4,33,44.19,44.19,0,0,0,1.3,11A136.793,136.793,0,0,1,16.3,8.8a48.2,48.2,0,0,0,15,64.3,47.368,47.368,0,0,1-21.8-6v.6A48.273,48.273,0,0,0,48.2,115a48.07,48.07,0,0,1-12.7,1.7,46.038,46.038,0,0,1-9.1-.9,48.147,48.147,0,0,0,45,33.5,96.931,96.931,0,0,1-59.9,20.6A87.684,87.684,0,0,1,0,169.2,134.346,134.346,0,0,0,73.7,191" fill="#fff"/>
</svg>
