<svg xmlns="http://www.w3.org/2000/svg" xmlns:xlink="http://www.w3.org/1999/xlink" version="1.1" x="0px" y="0px" viewBox="0 0 52 52" style="enable-background:new 0 0 52 52; fill: #ffffff;" xml:space="preserve"><g><polygon points="26,4.2 22.6,6.8 29.4,6.8  "/><polygon points="32.7,34.8 48,46.8 48,22.9  "/><polygon points="26,40.1 20.9,36.1 5.9,47.8 46.1,47.8 31.1,36.1  "/><polygon points="4,22.9 4,46.8 19.3,34.8  "/><polygon points="44,18.3 44,23.4 47.3,20.9  "/><polygon points="8,18.3 4.7,20.9 8,23.4  "/><path d="M42,25V8.8H10V25l16,12.5L42,25z M25.2,31.1c-0.3-0.3-0.7-0.7-1.2-1.3c-5.1-5.6-8.3-9.5-8.3-11.6c0-3.2,2.6-5.8,5.8-5.8   c1.8,0,3.4,0.8,4.4,2.1c1.1-1.3,2.7-2.1,4.4-2.1c3.2,0,5.8,2.6,5.8,5.8c0,3.1-7.9,11.4-9.5,13L26,31.9L25.2,31.1z"/></g></svg>