<svg xmlns="http://www.w3.org/2000/svg" viewBox="0 0 1792 2048">
    <defs>
        <style>
            @import url('https://fonts.bunny.net/css?family=major-mono-display:400');
            .e3db9fcb-8e13-426d-aca6-6e9dc9518385 { 
                fill:#111; 
            }
            .bc153ade-2c33-45b2-8acd-12cb2116740f {
                fill:#fff;
            }
        </style>
    </defs>
    <title>JS Hexagon</title>
    <g id="b4d40709-f5b3-4efc-9220-767b6ec6bbc1" data-name="Layer 3">
        <polygon class="e3db9fcb-8e13-426d-aca6-6e9dc9518385" points="1792 1520 896 2048 0 1520 0 528 896 0 1792 528 1792 1520"/>
    </g>
    <g id="bb0d8862-f0ed-487e-9620-571c2f725a0d" data-name="Layer 5">
        <path class="bc153ade-2c33-45b2-8acd-12cb2116740f" d="M752.14,848.38H551.44V668.16H938.5v422.91q0,95.25-37.89,164.36t-103.94,105q-66,35.8-146.94,35.83-77.84,0-143.87-38.91a291.93,291.93,0,0,1-105-105Q362,1186.3,362,1108.48H548.36q0,47.1,27.12,78.86t73.22,31.73q49.15,0,76.3-31.22t27.14-91.65Z" transform="translate(-128 0)"/>
        <path class="bc153ade-2c33-45b2-8acd-12cb2116740f" d="M1291.25,1001.48q-54.8-21-86-57.35T1174,850.43Q1174,791,1205.23,746t88.07-69.64q56.84-24.55,131.59-24.58,71.67,0,131.58,30.22t94.72,84.49Q1686,820.75,1686,890.37h-37.89q0-60.4-29.71-106.49t-80.89-71.17q-51.21-25.08-113.65-25.09-55.32,0-103.44,17.4t-78.33,53.25q-30.21,35.87-30.2,90.11,0,49.17,28.67,78.35t74.75,44.54q46.08,15.38,129,32.77,84,17.41,130.57,33.28a180.16,180.16,0,0,1,78.84,52.73q32.25,36.87,32.27,103.43t-35.33,112.12q-35.34,45.57-93.71,68.1t-127,22.53q-85,0-149.52-31.74t-98.81-89.61q-34.32-57.84-34.3-132.61h37.89q0,65.54,29.17,114.69t84.49,76.3q55.29,27.13,131.08,27.12,94.18,0,156.15-45t62-122.89q0-53.23-26.63-81.91t-67.08-41.49q-40.45-12.79-121.34-29.17Q1346,1022.46,1291.25,1001.48Z" transform="translate(-128 0)"/>
    </g>
</svg>
