<?xml version="1.0" standalone="no"?>
<!DOCTYPE svg PUBLIC "-//W3C//DTD SVG 20010904//EN"
 "http://www.w3.org/TR/2001/REC-SVG-20010904/DTD/svg10.dtd">
<svg version="1.0" xmlns="http://www.w3.org/2000/svg"
 width="512.000000pt" height="512.000000pt" viewBox="0 0 512.000000 512.000000"
 preserveAspectRatio="xMidYMid meet">
<metadata>
Created by potrace 1.14, written by Peter Selinger 2001-2017
</metadata>
<g transform="translate(0.000000,512.000000) scale(0.100000,-0.100000)"
fill="#000000" stroke="none">
<path d="M1440 4462 l-1115 -658 0 -1244 0 -1244 1117 -659 1118 -658 1118
658 1117 659 0 1244 0 1244 -1115 658 c-613 361 -1117 657 -1120 657 -3 0
-507 -296 -1120 -657z m2361 -1009 c239 -83 386 -262 414 -500 l7 -63 -49 0
-50 0 -10 75 c-27 189 -152 333 -350 402 -68 23 -94 27 -203 27 -197 0 -332
-47 -430 -150 -74 -78 -94 -129 -94 -239 0 -79 3 -96 27 -142 32 -62 106 -122
193 -157 33 -14 120 -39 194 -56 523 -124 555 -134 648 -216 63 -55 98 -125
113 -225 40 -256 -113 -469 -393 -550 -94 -27 -288 -37 -396 -19 -317 51 -530
265 -550 553 l-5 78 49 -3 49 -3 6 -72 c17 -180 109 -316 270 -398 88 -45 171
-65 293 -71 257 -14 474 89 552 259 25 54 28 74 28 157 0 79 -4 103 -23 143
-25 50 -83 107 -141 137 -45 23 -183 60 -371 100 -304 64 -450 121 -543 215
-175 174 -121 499 107 646 125 81 245 110 437 105 120 -2 145 -6 221 -33z
m-1451 -562 c0 -344 -4 -590 -11 -638 -23 -169 -95 -320 -203 -427 -76 -75
-148 -119 -263 -159 -83 -30 -96 -32 -238 -32 -131 0 -159 3 -219 23 -226 76
-392 235 -469 449 -22 60 -47 182 -47 227 0 14 29 16 234 16 l234 0 7 -42 c24
-149 113 -230 251 -230 116 0 191 51 234 162 11 27 15 121 18 398 l3 362 -250
0 -251 0 0 225 0 225 485 0 485 0 0 -559z"/>
</g>
</svg>
